<svg id="dvr_black_24dp" xmlns="http://www.w3.org/2000/svg" width="24" height="24" viewBox="0 0 24 24">
  <path id="Path_10573" data-name="Path 10573" d="M0,0H24V24H0Z" fill="none"/>
  <path id="Path_10574" data-name="Path 10574" d="M21,3H3A2.006,2.006,0,0,0,1,5V17a2.006,2.006,0,0,0,2,2H8v1a1,1,0,0,0,1,1h6a1,1,0,0,0,1-1V19h5a2.006,2.006,0,0,0,2-2V5A2.006,2.006,0,0,0,21,3ZM20,17H4a1,1,0,0,1-1-1V6A1,1,0,0,1,4,5H20a1,1,0,0,1,1,1V16A1,1,0,0,1,20,17ZM18,8H9a1,1,0,0,0,0,2h9a1,1,0,0,0,0-2Zm0,4H9a1,1,0,0,0,0,2h9a1,1,0,0,0,0-2ZM7,8H5v2H7Zm0,4H5v2H7Z"/>
</svg>
