<svg id="edit_black_24dp_3_" data-name="edit_black_24dp (3)" xmlns="http://www.w3.org/2000/svg" width="24" height="24" viewBox="0 0 24 24">
  <path id="Path_10592" data-name="Path 10592" d="M0,0H24V24H0Z" fill="none"/>
  <path id="Path_10593" data-name="Path 10593" d="M3,17.405v3.028a.493.493,0,0,0,.5.5H6.527a.467.467,0,0,0,.349-.149L17.754,9.914,14.018,6.178,3.149,17.046A.489.489,0,0,0,3,17.405ZM20.643,7.025a.992.992,0,0,0,0-1.4L18.312,3.289a.992.992,0,0,0-1.4,0L15.084,5.112,18.82,8.848l1.823-1.823Z" transform="translate(0.034 0.034)"/>
</svg>
