<svg id="edit_calendar_black_24dp" xmlns="http://www.w3.org/2000/svg" width="24" height="24" viewBox="0 0 24 24">
  <rect id="Rectangle_10898" data-name="Rectangle 10898" width="24" height="24" fill="none"/>
  <path id="Path_10575" data-name="Path 10575" d="M12,22H5a2,2,0,0,1-2-2L3.01,6A1.991,1.991,0,0,1,5,4H6V3A1,1,0,0,1,8,3V4h8V3a1,1,0,0,1,2,0V4h1a2.006,2.006,0,0,1,2,2v6H19V10H5V20h7Zm10.13-5.01.71-.71a1,1,0,0,0,0-1.41l-.71-.71a1,1,0,0,0-1.41,0l-.71.71Zm-.71.71-5.01,5.01a1.009,1.009,0,0,1-.7.29H14.5a.5.5,0,0,1-.5-.5V21.29a1.033,1.033,0,0,1,.29-.71l5.01-5.01Z"/>
</svg>
