<svg id="format_bold_black_24dp" xmlns="http://www.w3.org/2000/svg" width="24" height="24" viewBox="0 0 24 24">
  <path id="Path_10479" data-name="Path 10479" d="M0,0H24V24H0Z" fill="none"/>
  <path id="Path_10480" data-name="Path 10480" d="M15.559,10.757A3.623,3.623,0,0,0,17.2,7.981,3.924,3.924,0,0,0,13.22,4H8A1,1,0,0,0,7,5V16.938a1,1,0,0,0,1,1h5.752A3.943,3.943,0,0,0,17.7,14.181a3.7,3.7,0,0,0-2.14-3.423ZM9.986,6.488h2.986a1.493,1.493,0,1,1,0,2.986H9.986Zm3.483,8.957H9.986V12.459h3.483a1.493,1.493,0,1,1,0,2.986Z" transform="translate(-0.349 1.034)"/>
</svg>
