<svg xmlns="http://www.w3.org/2000/svg" width="251" height="100.863" viewBox="0 0 88.08 30">
  <g id="Group_20" data-name="Group 20" transform="translate(-472.993 -459.796)">
    <path id="Path_11" data-name="Path 11" d="M715,471.368l.008,6.778a1.966,1.966,0,0,1-.162.8,2.09,2.09,0,0,1-.442.654,2.047,2.047,0,0,1-.655.441,1.986,1.986,0,0,1-.8.164,2.039,2.039,0,0,1-.537-.072,1.94,1.94,0,0,1-.5-.206l0,2.211a4.311,4.311,0,0,0,1.032.127,4.006,4.006,0,0,0,1.605-.325,4.1,4.1,0,0,0,2.183-2.189,3.99,3.99,0,0,0,.321-1.6l-.008-6.778Z" transform="translate(-204.2 -9.888)" fill="#16375d"/>
    <path id="Path_12" data-name="Path 12" d="M761.406,494.4a4.031,4.031,0,0,1-1.185,2.891,4.072,4.072,0,0,1-2.873,1.17,4.014,4.014,0,0,1-1.579-.31,4.122,4.122,0,0,1-1.294-.853,3.976,3.976,0,0,1-.874-1.284,4.019,4.019,0,0,1-.321-1.6,4.079,4.079,0,0,1,.318-1.623,3.959,3.959,0,0,1,.871-1.29,4.084,4.084,0,0,1,2.87-1.163,4.3,4.3,0,0,1,1.586.289,3.843,3.843,0,0,1,1.29.824,3.9,3.9,0,0,1,.871,1.284,4.222,4.222,0,0,1,.322,1.669Zm-2.043,0a2.212,2.212,0,0,0-.161-.858,2.039,2.039,0,0,0-.435-.66,1.878,1.878,0,0,0-.643-.423,2.16,2.16,0,0,0-1.568,0,1.844,1.844,0,0,0-.638.424,2.011,2.011,0,0,0-.426.661,2.265,2.265,0,0,0-.155.858,2.155,2.155,0,0,0,.157.825,2.063,2.063,0,0,0,.428.66,1.987,1.987,0,0,0,.639.441,1.924,1.924,0,0,0,.784.161,2.047,2.047,0,0,0,.784-.152,1.96,1.96,0,0,0,.642-.424,1.984,1.984,0,0,0,.434-.661,2.219,2.219,0,0,0,.159-.854Z" transform="translate(-239.547 -26.098)" fill="#16375d"/>
    <path id="Path_13" data-name="Path 13" d="M823.281,494.319a4.029,4.029,0,0,1-1.185,2.891,4.071,4.071,0,0,1-2.874,1.17,4.015,4.015,0,0,1-1.579-.31,4.117,4.117,0,0,1-1.294-.853,3.97,3.97,0,0,1-.874-1.284,4.018,4.018,0,0,1-.321-1.6,4.08,4.08,0,0,1,.318-1.623,3.958,3.958,0,0,1,.871-1.29,4.085,4.085,0,0,1,2.87-1.163,4.3,4.3,0,0,1,1.586.289,3.84,3.84,0,0,1,1.29.824,3.9,3.9,0,0,1,.871,1.284,4.222,4.222,0,0,1,.322,1.669Zm-2.043,0a2.213,2.213,0,0,0-.161-.858,2.038,2.038,0,0,0-.435-.66,1.878,1.878,0,0,0-.643-.423,2.162,2.162,0,0,0-1.568,0,1.843,1.843,0,0,0-.638.424,2.01,2.01,0,0,0-.426.661,2.265,2.265,0,0,0-.155.858,2.155,2.155,0,0,0,.157.825,2.06,2.06,0,0,0,.428.66,1.988,1.988,0,0,0,.639.441,1.922,1.922,0,0,0,.784.161,2.048,2.048,0,0,0,.784-.152,1.958,1.958,0,0,0,.642-.424,1.982,1.982,0,0,0,.434-.661,2.222,2.222,0,0,0,.159-.854Z" transform="translate(-292.429 -26.03)" fill="#16375d"/>
    <path id="Path_14" data-name="Path 14" d="M884.887,481.873h0a.927.927,0,0,1-.751-.384l-.485-.671a6.369,6.369,0,0,1-.592.471,4.4,4.4,0,0,1-.656.381,4.022,4.022,0,0,1-.674.247,3.722,3.722,0,0,1-.875.1,3.819,3.819,0,0,1-1.42-.3,3.873,3.873,0,0,1-1.25-.845,3.986,3.986,0,0,1-.845-1.284,4.391,4.391,0,0,1,0-3.235,4.009,4.009,0,0,1,.842-1.293,3.885,3.885,0,0,1,1.248-.856,3.8,3.8,0,0,1,1.525-.311,3.449,3.449,0,0,1,.535.042,2.8,2.8,0,0,1,.539.139,2.235,2.235,0,0,1,.492.254,1.5,1.5,0,0,1,.388.387l0-3.59,1.974,0Zm-1.979-3.911a2.038,2.038,0,0,0-.155-.779,2.238,2.238,0,0,0-.421-.667,2.092,2.092,0,0,0-.622-.466,1.689,1.689,0,0,0-.758-.175,2.008,2.008,0,0,0-.757.145,1.788,1.788,0,0,0-.617.413,1.939,1.939,0,0,0-.412.658,2.4,2.4,0,0,0-.15.876,2.185,2.185,0,0,0,.566,1.471,1.917,1.917,0,0,0,.618.452,1.771,1.771,0,0,0,.758.165,1.686,1.686,0,0,0,.757-.177,2.1,2.1,0,0,0,.621-.468,2.242,2.242,0,0,0,.419-.668,2.032,2.032,0,0,0,.154-.779Z" transform="translate(-345.311 -9.682)" fill="#16375d"/>
    <path id="Path_15" data-name="Path 15" d="M720.241,572.276a2.963,2.963,0,0,1-.243,1.2,3.138,3.138,0,0,1-1.642,1.646,2.971,2.971,0,0,1-1.2.245l-5.148.006-.012-10.3,5.148-.006a2.972,2.972,0,0,1,1.2.242,3.138,3.138,0,0,1,1.646,1.642,2.965,2.965,0,0,1,.246,1.2,2.316,2.316,0,0,1-.078.589,2.855,2.855,0,0,1-.222.582,2.532,2.532,0,0,1-.344.51,1.968,1.968,0,0,1-.445.381,1.616,1.616,0,0,1,.453.369,2.62,2.62,0,0,1,.345.513,2.712,2.712,0,0,1,.22.585,2.472,2.472,0,0,1,.076.592Zm-6.178-3.08,3.087,0a1.019,1.019,0,0,0,.728-.3,1.008,1.008,0,0,0,.218-.331,1.042,1.042,0,0,0,.078-.406,1.018,1.018,0,0,0-1.028-1.025l-3.087,0Zm.005,4.114,3.087,0a1.027,1.027,0,1,0,0-2.053l-3.087,0Z" transform="translate(-204.266 -89.974)" fill="#16375d"/>
    <path id="Path_16" data-name="Path 16" d="M782.4,583.984a4.031,4.031,0,0,1-1.185,2.891,4.078,4.078,0,0,1-1.288.856,4.167,4.167,0,0,1-3.165,0,4.118,4.118,0,0,1-1.294-.853,3.976,3.976,0,0,1-.874-1.284,4.018,4.018,0,0,1-.321-1.6,4.082,4.082,0,0,1,.317-1.623,3.962,3.962,0,0,1,.871-1.29,4.083,4.083,0,0,1,2.87-1.163,4.29,4.29,0,0,1,1.586.289,3.843,3.843,0,0,1,1.29.824,3.909,3.909,0,0,1,.871,1.284,4.225,4.225,0,0,1,.322,1.669Zm-2.043,0a2.211,2.211,0,0,0-.161-.858,2.036,2.036,0,0,0-.435-.66,1.881,1.881,0,0,0-.643-.423,2.156,2.156,0,0,0-1.568,0,1.845,1.845,0,0,0-.638.424,2.01,2.01,0,0,0-.426.661,2.271,2.271,0,0,0-.155.858,2.161,2.161,0,0,0,.157.825,2.064,2.064,0,0,0,.428.66,2,2,0,0,0,.64.441,1.926,1.926,0,0,0,.784.161,2.042,2.042,0,0,0,.784-.152,1.952,1.952,0,0,0,.642-.424,1.982,1.982,0,0,0,.434-.661,2.221,2.221,0,0,0,.159-.855Z" transform="translate(-257.491 -102.663)" fill="#16375d"/>
    <path id="Path_17" data-name="Path 17" d="M844.46,583.906a4.031,4.031,0,0,1-1.185,2.891,4.077,4.077,0,0,1-1.288.856,4.168,4.168,0,0,1-3.165,0,4.122,4.122,0,0,1-1.294-.853,3.974,3.974,0,0,1-.874-1.284,4.02,4.02,0,0,1-.321-1.6,4.088,4.088,0,0,1,.318-1.623,3.958,3.958,0,0,1,.871-1.29,4.084,4.084,0,0,1,2.87-1.163,4.288,4.288,0,0,1,1.586.289,3.842,3.842,0,0,1,1.29.824,3.908,3.908,0,0,1,.871,1.284,4.221,4.221,0,0,1,.322,1.669Zm-2.043,0a2.214,2.214,0,0,0-.161-.858,2.032,2.032,0,0,0-.435-.66,1.879,1.879,0,0,0-.643-.423,2.156,2.156,0,0,0-1.568,0,1.844,1.844,0,0,0-.638.424,2.009,2.009,0,0,0-.426.661,2.265,2.265,0,0,0-.155.858,2.156,2.156,0,0,0,.157.825,2.06,2.06,0,0,0,.428.66,1.992,1.992,0,0,0,.639.441,1.925,1.925,0,0,0,.784.161,2.042,2.042,0,0,0,.784-.152,1.955,1.955,0,0,0,.642-.424,1.98,1.98,0,0,0,.434-.661,2.219,2.219,0,0,0,.159-.854Z" transform="translate(-310.53 -102.596)" fill="#16375d"/>
    <path id="Path_18" data-name="Path 18" d="M906,567.467l-2.254,0-2.918,3.708-.008-6.326-1.975,0,.012,10.3,1.975,0v-.984l1.363-1.812,1.561,2.792,2.254,0-2.554-4.472Z" transform="translate(-363.959 -89.787)" fill="#16375d"/>
    <path id="Path_19" data-name="Path 19" d="M954.212,562.222a1.193,1.193,0,0,1-.1.484,1.247,1.247,0,0,1-.268.392,1.3,1.3,0,0,1-.4.266,1.249,1.249,0,0,1-.974,0,1.242,1.242,0,0,1-.4-.265,1.261,1.261,0,0,1-.266-.392,1.224,1.224,0,0,1,0-.964,1.243,1.243,0,0,1,.66-.662,1.254,1.254,0,0,1,.975,0,1.3,1.3,0,0,1,.4.266,1.234,1.234,0,0,1,.27.395,1.2,1.2,0,0,1,.1.481Z" transform="translate(-409.139 -86.48)" fill="#fdc61b"/>
    <path id="Path_20" data-name="Path 20" d="M974.484,589.488l-1.96,0-.009-7.689a1.036,1.036,0,0,1,.785.357l.336.388a3.446,3.446,0,0,1,2.325-.9,3.315,3.315,0,0,1,1.328.268,3.439,3.439,0,0,1,1.092.738,3.509,3.509,0,0,1,.737,1.1,3.357,3.357,0,0,1,.271,1.339l.006,4.394-1.96,0-.005-4.394a1.435,1.435,0,0,0-.115-.57,1.481,1.481,0,0,0-.784-.785,1.412,1.412,0,0,0-.567-.114,1.49,1.49,0,0,0-.581.115,1.459,1.459,0,0,0-.789.787,1.438,1.438,0,0,0-.114.571Z" transform="translate(-426.92 -104.14)" fill="#16375d"/>
    <path id="Path_21" data-name="Path 21" d="M1032.818,587.647a3.776,3.776,0,0,1-.309,1.522,3.947,3.947,0,0,1-.843,1.242,4.012,4.012,0,0,1-1.249.84,3.8,3.8,0,0,1-1.526.309l-.984-.014v-1.96l.969.015a2.271,2.271,0,0,0,.782-.119,1.582,1.582,0,0,0,.9-.793,2.966,2.966,0,0,0,.212-.56.863.863,0,0,1-.33.305,2.3,2.3,0,0,1-.477.194,3.116,3.116,0,0,1-.546.1q-.284.028-.528.029a4.145,4.145,0,0,1-1.526-.28,3.645,3.645,0,0,1-2.093-2.075,4.449,4.449,0,0,1-.309-1.7,4.182,4.182,0,0,1,.309-1.616,4.014,4.014,0,0,1,.844-1.292,3.9,3.9,0,0,1,1.25-.855,3.808,3.808,0,0,1,1.526-.308,2.989,2.989,0,0,1,.74.093,3.828,3.828,0,0,1,.711.259,4.445,4.445,0,0,1,.657.387,5.451,5.451,0,0,1,.585.481l.458-.548a1.011,1.011,0,0,1,.777-.364Zm-1.974-2.944a2.035,2.035,0,0,0-.155-.779,2.23,2.23,0,0,0-.42-.667,2.076,2.076,0,0,0-.621-.467,1.687,1.687,0,0,0-.757-.176,2.1,2.1,0,0,0-.758.136,1.738,1.738,0,0,0-.617.4,1.887,1.887,0,0,0-.413.657,2.472,2.472,0,0,0-.151.894,2.347,2.347,0,0,0,.151.865,1.965,1.965,0,0,0,.413.657,1.8,1.8,0,0,0,.617.42,1.963,1.963,0,0,0,.758.147,1.683,1.683,0,0,0,.757-.176,2.081,2.081,0,0,0,.621-.467,2.235,2.235,0,0,0,.42-.668,2.034,2.034,0,0,0,.155-.779Z" transform="translate(-471.745 -103.273)" fill="#16375d"/>
    <rect id="Rectangle_14" data-name="Rectangle 14" width="1.974" height="7.69" transform="translate(542.837 477.665) rotate(-0.076)" fill="#16375d"/>
    <g id="Group_18" data-name="Group 18" transform="translate(481.451 469.7)">
      <g id="Group_17" data-name="Group 17" transform="translate(0 0)">
        <g id="Group_16" data-name="Group 16">
          <path id="Path_22" data-name="Path 22" d="M541.378,538.129l-5.248-.919a4.954,4.954,0,0,1-4.024-4.024l-.5-2.849-.419-2.4,5.245.917a4.97,4.97,0,0,1,2.858,1.6,4.561,4.561,0,0,1,.445.589,4.9,4.9,0,0,1,.723,1.836l.287,1.64.135.764.135.77Z" transform="translate(-531.187 -527.941)" fill="#fdc61b"/>
        </g>
      </g>
    </g>
    <g id="Group_19" data-name="Group 19" transform="translate(472.993 459.796)">
      <path id="Path_23" data-name="Path 23" d="M476.507,557.972a.684.684,0,0,0,.2.486.34.34,0,0,0,.067.062.687.687,0,0,0,.076.05l1.336.77,2.483,1.438h0l5.526,3.192a.693.693,0,0,0,.691,0h0l9.348-5.4a.68.68,0,0,0,.076-.05.348.348,0,0,0,.067-.062.68.68,0,0,0,.2-.486v-5.2a.415.415,0,0,1,.208-.359l2.684-1.55a.415.415,0,0,1,.623.359v6.755a4.221,4.221,0,0,1-2.1,3.643l-9.351,5.4a4.212,4.212,0,0,1-4.205,0l-9.348-5.4a4.221,4.221,0,0,1-2.1-3.643v-6.755a.415.415,0,0,1,.623-.359l2.684,1.55a.415.415,0,0,1,.208.359Z" transform="translate(-472.993 -537.574)" fill="#16375d"/>
      <path id="Path_24" data-name="Path 24" d="M474.22,466.429a4.05,4.05,0,0,1,.413-.363,3.88,3.88,0,0,1,.463-.31l9.348-5.4a3.949,3.949,0,0,1,.5-.243,4.222,4.222,0,0,1,3.207,0,3.733,3.733,0,0,1,.5.243l6.475,3.74L498,465.756a4.129,4.129,0,0,1,.463.31,4.084,4.084,0,0,1,.413.363,4.235,4.235,0,0,1,1.227,2.97v.513a.415.415,0,0,1-.207.359l-1.506.87-1.178.681a.415.415,0,0,1-.623-.36V469.4a.685.685,0,0,0-.091-.34.172.172,0,0,0-.026-.044c-.012-.018-.026-.035-.038-.053a.361.361,0,0,0-.047-.05c-.006-.009-.015-.015-.021-.024a.307.307,0,0,0-.047-.038l-.009-.006a.651.651,0,0,0-.067-.044l-5.947-3.436-3.4-1.964h0a.708.708,0,0,0-.082-.041.5.5,0,0,0-.129-.038.68.68,0,0,0-.267,0,.52.52,0,0,0-.132.038.7.7,0,0,0-.082.041l-5.526,3.192h0l-2.486,1.435-1.332.77a.432.432,0,0,0-.076.053.3.3,0,0,0-.047.038c-.006.009-.015.015-.02.023s-.032.032-.047.05a.233.233,0,0,0-.038.056.287.287,0,0,0-.035.056.694.694,0,0,0-.082.325v2.063a.415.415,0,0,1-.623.359l-2.684-1.55a.415.415,0,0,1-.208-.359V469.4A4.234,4.234,0,0,1,474.22,466.429Z" transform="translate(-472.993 -459.796)" fill="#16375d"/>
    </g>
  </g>
</svg>
